<svg width="41" height="41" viewBox="0 0 41 41" fill="none" xmlns="http://www.w3.org/2000/svg">
<path d="M20.4939 13.0127C21.3739 12.1706 22.3526 11.5705 23.502 11.248C28.0813 9.96696 32.5619 13.8368 31.9424 18.5398C31.6101 21.057 30.3441 23.0994 28.7368 24.9717C26.4471 27.6412 23.6815 29.7374 20.7364 31.6365C20.6196 31.7081 20.3862 31.726 20.2784 31.6544C17.1267 29.6209 14.1636 27.3545 11.7841 24.4163C10.5181 22.8486 9.53035 21.1287 9.13527 19.1131C8.26429 14.6878 11.7123 10.7374 16.2288 11.033C17.872 11.1405 19.2728 11.8302 20.4939 13.0127Z" fill="#421603" style="fill:#421603;fill:color(display-p3 0.2591 0.0846 0.0098);fill-opacity:1;"/>
<path d="M6.91943 8.10645L7.97584 7.03401L8.43488 7.48618L7.37847 8.55861L6.91943 8.10645Z" fill="#421603" style="fill:#421603;fill:color(display-p3 0.2591 0.0846 0.0098);fill-opacity:1;"/>
<path d="M5.47952 9.6821C5.744 9.82832 5.96453 10.0089 6.14109 10.2238C6.31857 10.437 6.44459 10.6706 6.51914 10.9247C6.59461 11.1771 6.61676 11.4435 6.58558 11.7238C6.55274 12.0031 6.45953 12.2817 6.30595 12.5595C6.15236 12.8373 5.966 13.0644 5.74686 13.2408C5.52605 13.4162 5.28824 13.54 5.03344 13.6119C4.77864 13.6839 4.51329 13.7023 4.2374 13.667C3.96244 13.6301 3.69271 13.5385 3.42823 13.3923C3.16375 13.2461 2.9436 13.0668 2.76778 12.8545C2.59121 12.6396 2.46566 12.4051 2.39111 12.1511C2.31655 11.897 2.2957 11.6303 2.32854 11.3509C2.35972 11.0706 2.4521 10.7916 2.60568 10.5138C2.75926 10.236 2.94646 10.0094 3.16726 9.83389C3.38641 9.6575 3.62375 9.53462 3.8793 9.46523C4.13411 9.39326 4.39899 9.37574 4.67396 9.41265C4.94818 9.44698 5.2167 9.53679 5.47952 9.6821ZM5.05602 10.4481C4.86639 10.3433 4.68293 10.2744 4.50563 10.2415C4.32667 10.2077 4.15858 10.2093 4.00137 10.2462C3.84341 10.2805 3.69974 10.3498 3.57035 10.4542C3.44022 10.556 3.32826 10.6917 3.23445 10.8614C3.14065 11.0311 3.08478 11.1989 3.06684 11.3649C3.04724 11.53 3.06446 11.6894 3.1185 11.843C3.17179 11.9941 3.26033 12.1365 3.38411 12.27C3.50623 12.4027 3.6621 12.5215 3.85173 12.6263C4.04303 12.7321 4.22815 12.8018 4.40711 12.8356C4.58441 12.8685 4.75121 12.8673 4.9075 12.8321C5.06472 12.7952 5.20885 12.7251 5.3399 12.6216C5.46928 12.5172 5.58088 12.3802 5.67468 12.2105C5.76849 12.0408 5.82473 11.8743 5.84341 11.7109C5.86134 11.5449 5.84366 11.3863 5.79037 11.2352C5.73799 11.0825 5.65075 10.9398 5.52863 10.8071C5.40485 10.6735 5.24731 10.5538 5.05602 10.4481Z" fill="#421603" style="fill:#421603;fill:color(display-p3 0.2591 0.0846 0.0098);fill-opacity:1;"/>
<path d="M1.85554 13.7834L1.54527 14.9518L4.87675 15.8365L4.65649 16.6659L1.32501 15.7812L1.01475 16.9495L0.3479 16.7725L1.18869 13.6064L1.85554 13.7834Z" fill="#421603" style="fill:#421603;fill:color(display-p3 0.2591 0.0846 0.0098);fill-opacity:1;"/>
<path d="M4.33337 18.4641L4.24868 19.321L0.131836 18.9141L0.216527 18.0572L4.33337 18.4641Z" fill="#421603" style="fill:#421603;fill:color(display-p3 0.2591 0.0846 0.0098);fill-opacity:1;"/>
<path d="M2.1018 21.984C2.09152 21.8456 2.06559 21.7275 2.02401 21.6296C1.98053 21.5318 1.92607 21.4529 1.86063 21.393C1.79329 21.3332 1.7168 21.2912 1.63114 21.2671C1.54549 21.2429 1.45338 21.2345 1.35481 21.2419C1.15958 21.2564 1.01279 21.333 0.914466 21.4718C0.815998 21.6088 0.77662 21.8099 0.796333 22.0753L0.829281 22.5188L2.13433 22.4219L2.1018 21.984ZM4.12556 19.8239L4.18279 20.5944C4.19349 20.7384 4.14627 20.8468 4.04112 20.9194L2.83417 21.7981C2.78728 21.834 2.75394 21.8727 2.73415 21.9142C2.71422 21.9538 2.70707 22.0115 2.71271 22.0873L2.73425 22.3773L4.30656 22.2605L4.36992 23.1135L0.244385 23.4199L0.148074 22.1234C0.126672 21.8353 0.138695 21.5866 0.184144 21.3774C0.227698 21.1684 0.29769 20.9945 0.394122 20.8558C0.490554 20.7171 0.610442 20.612 0.753784 20.5403C0.895231 20.4688 1.0541 20.4265 1.23038 20.4135C1.36685 20.4033 1.49817 20.4136 1.62433 20.4442C1.74846 20.4731 1.8635 20.5208 1.96945 20.5873C2.07541 20.6537 2.17125 20.7381 2.25699 20.8404C2.34274 20.9426 2.41444 21.0612 2.47211 21.196C2.49835 21.1388 2.53151 21.0849 2.57159 21.0343C2.60977 20.9838 2.65683 20.9374 2.71277 20.8951L4.12556 19.8239Z" fill="#421603" style="fill:#421603;fill:color(display-p3 0.2591 0.0846 0.0098);fill-opacity:1;"/>
<path d="M2.44615 24.3859C2.73193 24.2876 3.01374 24.245 3.29156 24.258C3.56877 24.2692 3.82663 24.3322 4.06515 24.4472C4.30305 24.5603 4.51557 24.7224 4.70271 24.9334C4.88805 25.145 5.03234 25.4009 5.13557 25.7011C5.2388 26.0013 5.28244 26.2918 5.26647 26.5726C5.24871 26.8541 5.18114 27.1135 5.06378 27.3508C4.94642 27.5882 4.78221 27.7974 4.57114 27.9785C4.35946 28.1579 4.11073 28.2967 3.82494 28.395C3.53916 28.4932 3.25856 28.5365 2.98315 28.5247C2.70533 28.5117 2.44715 28.4477 2.20863 28.3328C1.97011 28.2178 1.75818 28.0545 1.57284 27.8429C1.3857 27.6319 1.24052 27.3763 1.13729 27.0762C1.03405 26.776 0.99132 26.4852 1.00908 26.2037C1.02505 25.9229 1.09292 25.6644 1.2127 25.4282C1.33006 25.1909 1.49458 24.9825 1.70627 24.8032C1.91553 24.6227 2.16216 24.4836 2.44615 24.3859ZM2.73081 25.2136C2.52591 25.2841 2.35184 25.3741 2.20862 25.4837C2.06361 25.5938 1.9521 25.7196 1.8741 25.861C1.79368 26.0012 1.74885 26.1543 1.73961 26.3203C1.72795 26.4851 1.75365 26.6592 1.8167 26.8425C1.87975 27.0258 1.96687 27.1798 2.07805 27.3044C2.18743 27.4295 2.31726 27.5236 2.46753 27.5865C2.61538 27.6482 2.78036 27.6779 2.96247 27.6755C3.14277 27.6738 3.33538 27.6377 3.54028 27.5673C3.74698 27.4962 3.92284 27.4056 4.06786 27.2954C4.21108 27.1858 4.322 27.0613 4.40062 26.9217C4.47862 26.7803 4.52314 26.6263 4.53418 26.4597C4.54342 26.2937 4.51652 26.119 4.45346 25.9357C4.39041 25.7524 4.3045 25.599 4.19574 25.4756C4.08456 25.351 3.95504 25.2579 3.80719 25.1962C3.65872 25.1327 3.49433 25.1018 3.31402 25.1035C3.13191 25.1058 2.93751 25.1425 2.73081 25.2136Z" fill="#421603" style="fill:#421603;fill:color(display-p3 0.2591 0.0846 0.0098);fill-opacity:1;"/>
<path d="M2.55574 30.3894L6.90922 29.4232L7.34776 30.0628L4.87744 33.7754L4.48727 33.2064C4.44535 33.1452 4.42638 33.0856 4.43037 33.0276C4.43172 32.969 4.44867 32.9148 4.48123 32.8648L5.94075 30.7786C5.99508 30.6999 6.057 30.6171 6.12652 30.5303C6.19339 30.4429 6.26657 30.3547 6.34607 30.2656C6.23648 30.3108 6.13051 30.3512 6.02817 30.3868C5.92318 30.4219 5.82418 30.4506 5.73115 30.4729L3.26234 31.0872C3.2124 31.0984 3.15832 31.0951 3.1001 31.0774C3.03923 31.0592 2.98838 31.0204 2.94753 30.9608L2.55574 30.3894Z" fill="#421603" style="fill:#421603;fill:color(display-p3 0.2591 0.0846 0.0098);fill-opacity:1;"/>
<path d="M8.45945 33.6443L7.97241 34.8955C7.94915 34.9633 7.91989 35.041 7.88463 35.1285C7.84793 35.2148 7.80554 35.3062 7.75748 35.4028C7.84711 35.3395 7.93321 35.2832 8.0158 35.234C8.09571 35.1849 8.16745 35.1438 8.23103 35.1108L9.39047 34.4463L8.45945 33.6443ZM8.39603 31.5163L8.89934 31.9498C8.9555 31.9982 8.99042 32.0509 9.00409 32.1078C9.01508 32.1649 9.01123 32.2218 8.99254 32.2785L8.6888 33.0592L9.93735 34.1347L10.6645 33.7187C10.7099 33.6951 10.7636 33.6837 10.8257 33.6845C10.8865 33.6867 10.9443 33.7114 10.999 33.7585L11.5066 34.1958L7.58185 36.275L6.91869 35.7038L8.39603 31.5163Z" fill="#421603" style="fill:#421603;fill:color(display-p3 0.2591 0.0846 0.0098);fill-opacity:1;"/>
<path d="M11.5722 38.0717L12.1043 37.0598L10.7871 36.3671L11.1003 35.7716L12.4175 36.4643L13.1858 35.0032L13.9479 35.404L12.0225 39.0654L9.6908 37.8393L10.0026 37.2463L11.5722 38.0717Z" fill="#421603" style="fill:#421603;fill:color(display-p3 0.2591 0.0846 0.0098);fill-opacity:1;"/>
<path d="M15.4155 38.083L13.9874 37.6071L14.1911 36.9958L15.6193 37.4717L15.4155 38.083Z" fill="#421603" style="fill:#421603;fill:color(display-p3 0.2591 0.0846 0.0098);fill-opacity:1;"/>
<path d="M17.4644 38.6818C17.4792 38.3799 17.5442 38.1024 17.6593 37.8493C17.7726 37.596 17.9268 37.38 18.122 37.2011C18.3154 37.0222 18.5447 36.885 18.8101 36.7895C19.0754 36.6959 19.3666 36.6568 19.6836 36.6723C20.0007 36.6879 20.2866 36.7551 20.5415 36.8742C20.7963 36.9951 21.0121 37.1541 21.189 37.3511C21.3658 37.5482 21.4992 37.7783 21.5891 38.0415C21.6771 38.3046 21.7137 38.5871 21.6989 38.8889C21.6842 39.1908 21.6202 39.4674 21.507 39.7187C21.3919 39.9719 21.2367 40.1879 21.0415 40.3668C20.8462 40.5456 20.616 40.6818 20.3507 40.7754C20.0853 40.8709 19.7941 40.9109 19.477 40.8954C19.16 40.8799 18.8741 40.8117 18.6193 40.6907C18.3644 40.5717 18.1495 40.4128 17.9747 40.2139C17.7978 40.0169 17.6654 39.7868 17.5774 39.5237C17.4874 39.2624 17.4498 38.9817 17.4644 38.6818ZM18.3387 38.7246C18.3281 38.941 18.3471 39.136 18.3957 39.3097C18.4442 39.4852 18.5196 39.6354 18.622 39.7603C18.7224 39.887 18.8479 39.9854 18.9986 40.0556C19.1473 40.1276 19.3185 40.1683 19.5121 40.1778C19.7058 40.1873 19.8811 40.1635 20.038 40.1065C20.1948 40.0513 20.3303 39.9657 20.4445 39.8495C20.5567 39.7351 20.6454 39.5929 20.7108 39.4229C20.7762 39.2548 20.8141 39.0626 20.8247 38.8462C20.8354 38.6278 20.8165 38.4309 20.768 38.2554C20.7194 38.0817 20.6448 37.9325 20.5444 37.8077C20.442 37.6828 20.3155 37.5843 20.1649 37.5123C20.0142 37.4421 19.842 37.4023 19.6484 37.3928C19.4547 37.3833 19.2804 37.4062 19.1255 37.4614C18.9686 37.5184 18.834 37.6042 18.7219 37.7186C18.6078 37.8329 18.5181 37.9741 18.4528 38.1421C18.3874 38.3121 18.3494 38.5062 18.3387 38.7246Z" fill="#421603" style="fill:#421603;fill:color(display-p3 0.2591 0.0846 0.0098);fill-opacity:1;"/>
<path d="M22.7425 40.1283L23.9281 39.8921L23.2548 36.5116L24.0964 36.344L24.7697 39.7245L25.9553 39.4884L26.0901 40.165L22.8773 40.8049L22.7425 40.1283Z" fill="#421603" style="fill:#421603;fill:color(display-p3 0.2591 0.0846 0.0098);fill-opacity:1;"/>
<path d="M25.8544 35.8423L26.6609 35.5409L28.1091 39.416L27.3026 39.7174L25.8544 35.8423Z" fill="#421603" style="fill:#421603;fill:color(display-p3 0.2591 0.0846 0.0098);fill-opacity:1;"/>
<path d="M29.996 36.2951C29.8763 36.3653 29.7816 36.4407 29.712 36.5211C29.6434 36.6032 29.5966 36.6869 29.5716 36.772C29.5476 36.8588 29.5436 36.946 29.5597 37.0335C29.5757 37.121 29.6088 37.2074 29.6588 37.2927C29.7578 37.4616 29.8913 37.5596 30.0592 37.5867C30.2255 37.6148 30.4234 37.5615 30.653 37.4269L31.0366 37.2019L30.3747 36.0731L29.996 36.2951ZM27.1652 35.4299L27.8317 35.0391C27.9563 34.966 28.0744 34.9607 28.1859 35.0231L29.5064 35.7196C29.5593 35.7459 29.6087 35.7587 29.6547 35.7582C29.699 35.7587 29.754 35.7397 29.8196 35.7012L30.0704 35.5541L29.273 34.1941L30.0108 33.7614L32.1033 37.3301L30.9818 37.9877C30.7325 38.1338 30.504 38.2325 30.2961 38.2839C30.0893 38.3369 29.9023 38.3507 29.7354 38.3252C29.5684 38.2997 29.4212 38.2384 29.2937 38.1413C29.1672 38.0458 29.0593 37.9218 28.9699 37.7693C28.9006 37.6513 28.852 37.5288 28.8239 37.4021C28.7952 37.2779 28.7873 37.1536 28.8003 37.0292C28.8133 36.9048 28.8468 36.7816 28.9009 36.6596C28.9549 36.5376 29.0298 36.421 29.1254 36.3098C29.0625 36.3115 28.9995 36.3055 28.9364 36.2918C28.8742 36.2797 28.8119 36.2579 28.7493 36.2263L27.1652 35.4299Z" fill="#421603" style="fill:#421603;fill:color(display-p3 0.2591 0.0846 0.0098);fill-opacity:1;"/>
<path d="M32.0016 34.9271C31.7875 34.7138 31.6251 34.4796 31.5143 34.2245C31.4023 33.9707 31.3453 33.7114 31.3434 33.4466C31.3402 33.1832 31.3921 32.921 31.4991 32.6601C31.6074 32.4005 31.7736 32.1582 31.9976 31.9333C32.2216 31.7084 32.4632 31.5413 32.7223 31.4319C32.9829 31.3238 33.2455 31.2702 33.5103 31.271C33.775 31.2718 34.0352 31.3271 34.2908 31.4368C34.545 31.5478 34.7792 31.71 34.9934 31.9232C35.2075 32.1365 35.3699 32.3694 35.4806 32.6218C35.5914 32.8769 35.6477 33.1369 35.6495 33.4016C35.6514 33.6664 35.5982 33.9286 35.4898 34.1882C35.3828 34.4492 35.2173 34.6921 34.9934 34.917C34.7694 35.1419 34.5271 35.3084 34.2666 35.4164C34.0074 35.5258 33.7454 35.5787 33.4807 35.5752C33.2159 35.5744 32.9564 35.5185 32.7021 35.4075C32.4479 35.2991 32.2144 35.139 32.0016 34.9271ZM32.6193 34.3069C32.7728 34.4598 32.9303 34.5764 33.0917 34.6567C33.2545 34.7384 33.4166 34.7831 33.5779 34.7908C33.7392 34.8012 33.8964 34.774 34.0494 34.7092C34.2025 34.6471 34.3475 34.5473 34.4843 34.41C34.6211 34.2726 34.7209 34.1266 34.7838 33.9719C34.848 33.8186 34.8752 33.6606 34.8655 33.498C34.8558 33.3381 34.8097 33.1769 34.7274 33.0144C34.6465 32.8533 34.5292 32.6963 34.3757 32.5434C34.2208 32.3891 34.062 32.2712 33.8992 32.1895C33.7378 32.1092 33.5771 32.0645 33.4171 32.0554C33.2558 32.0477 33.0979 32.0756 32.9435 32.139C32.7904 32.2039 32.6455 32.305 32.5087 32.4423C32.3718 32.5797 32.272 32.7244 32.2091 32.8764C32.1463 33.0311 32.1197 33.1884 32.1295 33.3483C32.1378 33.5095 32.1825 33.6707 32.2635 33.8318C32.3458 33.9943 32.4644 34.1527 32.6193 34.3069Z" fill="#421603" style="fill:#421603;fill:color(display-p3 0.2591 0.0846 0.0098);fill-opacity:1;"/>
<path d="M37.3426 32.1852L34.5574 28.7026L34.9384 28.0271L39.3596 28.6094L39.0206 29.2103C38.9842 29.2749 38.9391 29.3182 38.8852 29.3401C38.8321 29.3647 38.7759 29.3734 38.7167 29.3662L36.2008 28.9749C36.1062 28.9608 36.0046 28.9417 35.896 28.9176C35.7882 28.896 35.6768 28.8692 35.5618 28.837C35.6506 28.9155 35.7336 28.9928 35.8106 29.069C35.8884 29.1478 35.9577 29.2241 36.0187 29.2977L37.6577 31.2435C37.6898 31.2834 37.7107 31.3334 37.7204 31.3935C37.7309 31.4561 37.7184 31.5189 37.6829 31.5818L37.3426 32.1852Z" fill="#421603" style="fill:#421603;fill:color(display-p3 0.2591 0.0846 0.0098);fill-opacity:1;"/>
<path d="M37.6641 25.4509L39.0019 25.337C39.073 25.328 39.1556 25.3201 39.2497 25.3132C39.3434 25.3081 39.4441 25.3059 39.552 25.3065C39.4557 25.2539 39.3673 25.2014 39.2866 25.149C39.2074 25.0988 39.1389 25.0525 39.0813 25.01L37.974 24.2618L37.6641 25.4509ZM35.7816 26.4453L35.9491 25.8025C35.9678 25.7307 35.9997 25.6762 36.0448 25.6388C36.0912 25.6038 36.144 25.5822 36.2031 25.574L37.0378 25.5028L37.4533 23.9081L36.7595 23.4386C36.7183 23.4083 36.6844 23.365 36.6578 23.309C36.633 23.2534 36.6297 23.1907 36.6479 23.1208L36.8168 22.4725L40.4124 25.0799L40.1917 25.9269L35.7816 26.4453Z" fill="#421603" style="fill:#421603;fill:color(display-p3 0.2591 0.0846 0.0098);fill-opacity:1;"/>
<path d="M40.2679 20.7062L39.125 20.6743L39.0834 22.1619L38.4109 22.1431L38.4524 20.6555L36.8023 20.6093L36.8264 19.7486L40.9617 19.8643L40.888 22.4976L40.2183 22.4789L40.2679 20.7062Z" fill="#421603" style="fill:#421603;fill:color(display-p3 0.2591 0.0846 0.0098);fill-opacity:1;"/>
<path d="M38.3281 16.0381L38.6302 17.5128L37.999 17.6421L37.6969 16.1674L38.3281 16.0381Z" fill="#421603" style="fill:#421603;fill:color(display-p3 0.2591 0.0846 0.0098);fill-opacity:1;"/>
<path d="M37.8217 13.9639C37.5529 14.1021 37.2801 14.1846 37.0033 14.2115C36.7273 14.2401 36.4631 14.2146 36.2106 14.135C35.9589 14.057 35.7254 13.927 35.51 13.745C35.2963 13.5621 35.1168 13.3294 34.9717 13.0472C34.8266 12.7649 34.7418 12.4836 34.7174 12.2033C34.6947 11.9222 34.7245 11.6558 34.8067 11.4041C34.8888 11.1524 35.0214 10.9218 35.2044 10.7124C35.3882 10.5046 35.6145 10.3316 35.8833 10.1935C36.1521 10.0553 36.4236 9.97233 36.6979 9.9446C36.9747 9.9177 37.2394 9.94406 37.4919 10.0237C37.7444 10.1033 37.9775 10.2346 38.1912 10.4175C38.4066 10.5996 38.5869 10.8317 38.732 11.114C38.8772 11.3963 38.9611 11.678 38.9838 11.9591C39.0082 12.2394 38.978 12.505 38.8933 12.7558C38.8111 13.0075 38.6781 13.2373 38.4942 13.445C38.3129 13.6536 38.0888 13.8266 37.8217 13.9639ZM37.4215 13.1855C37.6142 13.0864 37.7736 12.9724 37.8996 12.8435C38.0274 12.7137 38.1198 12.5732 38.1767 12.4221C38.2362 12.2718 38.2587 12.1139 38.2441 11.9483C38.232 11.7835 38.1817 11.6149 38.0931 11.4425C38.0044 11.2701 37.8962 11.1302 37.7683 11.0228C37.6421 10.9146 37.5002 10.8401 37.3425 10.7993C37.1873 10.7594 37.0198 10.7537 36.8399 10.782C36.6617 10.8095 36.4762 10.8728 36.2835 10.9719C36.0891 11.0718 35.928 11.1867 35.8003 11.3165C35.6742 11.4454 35.5822 11.5846 35.5244 11.734C35.4675 11.8851 35.4454 12.0439 35.4584 12.2103C35.473 12.3759 35.5246 12.5449 35.6132 12.7174C35.7019 12.8898 35.8088 13.0293 35.9341 13.1358C36.062 13.2432 36.2035 13.3168 36.3587 13.3568C36.5147 13.3984 36.6818 13.4054 36.86 13.3779C37.0399 13.3495 37.2271 13.2854 37.4215 13.1855Z" fill="#421603" style="fill:#421603;fill:color(display-p3 0.2591 0.0846 0.0098);fill-opacity:1;"/>
<path d="M36.4348 8.66915L35.6374 7.7606L33.0467 10.0343L32.4806 9.38932L35.0713 7.11562L34.2739 6.20707L34.7925 5.75195L36.9534 8.21403L36.4348 8.66915Z" fill="#421603" style="fill:#421603;fill:color(display-p3 0.2591 0.0846 0.0098);fill-opacity:1;"/>
<path d="M31.1665 8.11964L30.5021 7.57196L33.1335 4.37988L33.7979 4.92756L31.1665 8.11964Z" fill="#421603" style="fill:#421603;fill:color(display-p3 0.2591 0.0846 0.0098);fill-opacity:1;"/>
<path d="M29.4875 4.30628C29.6082 4.37483 29.7207 4.41912 29.8252 4.43914C29.9306 4.45751 30.0265 4.45622 30.1127 4.43527C30.1999 4.41266 30.2773 4.37252 30.3451 4.31483C30.4129 4.25715 30.4711 4.18534 30.52 4.09941C30.6167 3.9292 30.6348 3.7646 30.5743 3.60561C30.5155 3.44756 30.3704 3.3028 30.139 3.17134L29.7523 2.9516L29.1058 4.08936L29.4875 4.30628ZM30.154 7.1903L29.4822 6.80857C29.3566 6.73721 29.293 6.63763 29.2912 6.50986L29.2339 5.01804C29.2302 4.95911 29.2167 4.90987 29.1932 4.87032C29.1714 4.83171 29.1275 4.79362 29.0614 4.75606L28.8086 4.61238L28.0296 5.98315L27.286 5.56058L29.3298 1.96387L30.4602 2.60617C30.7114 2.74891 30.9112 2.89743 31.0596 3.05172C31.209 3.20437 31.3144 3.35936 31.3758 3.5167C31.4372 3.67403 31.4578 3.83217 31.4374 3.99112C31.418 4.14841 31.3646 4.3039 31.2773 4.45758C31.2096 4.57657 31.128 4.6799 31.0322 4.7676C30.9391 4.85458 30.8354 4.92355 30.7212 4.97451C30.607 5.02547 30.4835 5.05806 30.3508 5.07229C30.2181 5.08652 30.0797 5.08002 29.9356 5.05278C29.9685 5.10645 29.9948 5.16403 30.0145 5.22551C30.0352 5.28534 30.0475 5.35027 30.0514 5.42027L30.154 7.1903Z" fill="#421603" style="fill:#421603;fill:color(display-p3 0.2591 0.0846 0.0098);fill-opacity:1;"/>
<path d="M27.3006 3.2533C27.2231 3.54538 27.1015 3.80316 26.9359 4.02664C26.7722 4.25061 26.5761 4.42961 26.3478 4.56365C26.1213 4.69818 25.8683 4.78437 25.5888 4.82222C25.3098 4.85824 25.0169 4.8355 24.7102 4.75401C24.4034 4.67251 24.1378 4.5469 23.9135 4.37718C23.6896 4.20562 23.5118 4.00499 23.3801 3.77531C23.2484 3.54563 23.1661 3.29269 23.1333 3.01651C23.1023 2.74082 23.1256 2.45693 23.2032 2.16485C23.2808 1.87277 23.4012 1.61567 23.5645 1.39354C23.73 1.17006 23.927 0.991302 24.1553 0.857263C24.3836 0.723224 24.6373 0.638196 24.9163 0.602178C25.1958 0.564324 25.4889 0.586143 25.7957 0.667637C26.1025 0.74913 26.3678 0.875658 26.5917 1.04722C26.816 1.21694 26.9929 1.41732 27.1222 1.64836C27.254 1.87804 27.3353 2.13073 27.3663 2.40642C27.3996 2.68076 27.3777 2.96306 27.3006 3.2533ZM26.4547 3.02859C26.5103 2.81917 26.5326 2.62448 26.5214 2.44451C26.5107 2.2627 26.4683 2.10003 26.3944 1.95648C26.3227 1.81159 26.2205 1.68907 26.0879 1.58892C25.9575 1.48743 25.7986 1.41179 25.6112 1.36202C25.4239 1.31224 25.2475 1.29882 25.0821 1.32175C24.9172 1.34285 24.7668 1.39827 24.6308 1.48802C24.4972 1.57642 24.3807 1.69689 24.2811 1.84941C24.1821 2.0001 24.1048 2.18015 24.0491 2.38957C23.993 2.60082 23.9703 2.79735 23.981 2.97916C23.9922 3.15913 24.0339 3.32064 24.106 3.4637C24.18 3.60724 24.2831 3.73 24.4153 3.83199C24.548 3.93214 24.708 4.0071 24.8954 4.05687C25.0827 4.10665 25.258 4.12074 25.421 4.09916C25.5864 4.07623 25.7359 4.02056 25.8695 3.93216C26.005 3.84424 26.1222 3.72494 26.2212 3.57425C26.3208 3.42173 26.3986 3.23984 26.4547 3.02859Z" fill="#421603" style="fill:#421603;fill:color(display-p3 0.2591 0.0846 0.0098);fill-opacity:1;"/>
<path d="M22.2543 0.000329711L20.6313 4.15387L19.8558 4.16174L18.1489 0.0419922L18.8388 0.0349906C18.913 0.0342383 18.973 0.0516865 19.019 0.087335C19.0669 0.121063 19.1025 0.165371 19.1259 0.220256L20.0452 2.59452C20.0803 2.6835 20.1146 2.78104 20.148 2.88715C20.1833 2.99133 20.2157 3.10125 20.2454 3.2169C20.269 3.10071 20.2944 2.99021 20.3219 2.88538C20.3512 2.77864 20.3825 2.68043 20.4158 2.59076L21.2811 0.198383C21.2997 0.150676 21.3325 0.107575 21.3796 0.0690807C21.4286 0.0286667 21.4893 0.0080932 21.5615 0.00736025L22.2543 0.000329711Z" fill="#421603" style="fill:#421603;fill:color(display-p3 0.2591 0.0846 0.0098);fill-opacity:1;"/>
<path d="M16.2621 3.08925L15.4943 1.98773C15.451 1.93066 15.4028 1.86311 15.3498 1.78506C15.2986 1.70651 15.2462 1.62037 15.1928 1.52666C15.1954 1.63634 15.1942 1.7392 15.1891 1.83523C15.1854 1.92893 15.1795 2.01138 15.1715 2.08258L15.0774 3.41561L16.2621 3.08925ZM18.0646 4.22212L17.4242 4.39855C17.3527 4.41824 17.2895 4.4179 17.2346 4.39754C17.1811 4.37483 17.136 4.33994 17.0993 4.29286L16.6202 3.60569L15.0315 4.04336L14.9719 4.87894C14.9662 4.9298 14.9457 4.98078 14.9105 5.03188C14.8748 5.08115 14.8221 5.11538 14.7525 5.13456L14.1065 5.31251L14.5663 0.894879L15.4102 0.662415L18.0646 4.22212Z" fill="#421603" style="fill:#421603;fill:color(display-p3 0.2591 0.0846 0.0098);fill-opacity:1;"/>
<path d="M10.8507 3.20804L11.3946 4.21366L12.7037 3.50567L13.0238 4.0975L11.7147 4.80549L12.5 6.25749L11.7427 6.66709L9.77466 3.02832L12.0919 1.7751L12.4106 2.36443L10.8507 3.20804Z" fill="#421603" style="fill:#421603;fill:color(display-p3 0.2591 0.0846 0.0098);fill-opacity:1;"/>
</svg>
