<svg width="46" height="46" viewBox="0 0 46 46" fill="none" xmlns="http://www.w3.org/2000/svg">
<circle cx="23" cy="23" r="23" fill="#ECE8DF"/>
<path d="M30.2663 16.8394C30.1796 16.5142 30.0033 16.161 29.8718 15.8582C28.3049 12.0847 24.8829 10.7334 22.1184 10.7334C18.4166 10.7334 14.3426 13.2173 13.7998 18.3421V19.3906C13.7998 19.4354 13.8138 19.8279 13.8362 20.0242C14.1412 22.466 16.0634 25.0592 17.5016 27.5039C19.0462 30.1223 20.6494 32.6931 22.2387 35.2667C23.2181 33.5874 24.1946 31.8857 25.1515 30.2513C25.4145 29.7719 25.7139 29.2925 25.9769 28.8327C26.1504 28.5271 26.4834 28.2216 26.6345 27.9384C28.179 25.1041 30.6665 22.2473 30.6665 19.4354V18.2776C30.6665 17.972 30.2887 16.9039 30.2663 16.8394ZM22.1856 22.0931C21.0971 22.0931 19.908 21.5493 19.3204 20.0438C19.2308 19.8027 19.2392 19.3233 19.2392 19.2812V18.6056C19.2392 16.688 20.8649 15.8133 22.2807 15.8133C24.0211 15.8133 25.367 17.2095 25.367 18.9532C25.367 20.697 23.926 22.0931 22.1856 22.0931Z" fill="#421603"/>
</svg>
