<svg width="31" height="31" viewBox="0 0 31 31" fill="none" xmlns="http://www.w3.org/2000/svg">
<path fill-rule="evenodd" clip-rule="evenodd" d="M0 15.0477C0 23.3458 6.7497 30.0955 15.0477 30.0955C23.3463 30.0955 30.0955 23.3463 30.0955 15.0477C30.0955 6.74914 23.3463 0 15.0477 0C6.7497 0 0 6.74914 0 15.0477ZM28.8776 15.0477C28.8776 22.6765 22.6765 28.8776 15.0477 28.8776C7.41952 28.8776 1.21786 22.6765 1.21786 15.0477C1.21786 7.42007 7.41952 1.2173 15.0477 1.2173C22.6765 1.2173 28.8776 7.42007 28.8776 15.0477Z" fill="#421603"/>
<path fill-rule="evenodd" clip-rule="evenodd" d="M10.0508 12.9081C9.93345 13.0249 9.87256 13.1849 9.87256 13.3388C9.87256 13.4927 9.93345 13.6521 10.0508 13.7689L14.6178 18.3364C14.7346 18.4521 14.8885 18.5141 15.0479 18.5141C15.2073 18.5141 15.3612 18.4521 15.4786 18.3364L20.0455 13.7689C20.2852 13.5292 20.2852 13.1473 20.0455 12.9081C19.8053 12.669 19.425 12.669 19.1842 12.9081L15.0479 17.0461L10.9111 12.9081C10.6714 12.6745 10.2844 12.6745 10.0508 12.9081Z" fill="#421603"/>
</svg>
