<svg width="46" height="46" viewBox="0 0 46 46" fill="none" xmlns="http://www.w3.org/2000/svg">
<path d="M22.9991 27.6044C25.5366 27.6044 27.6054 25.5393 27.6054 23C27.6054 21.9975 27.2774 21.072 26.7345 20.316C25.8979 19.1561 24.5379 18.3955 23.0019 18.3955C21.4649 18.3955 20.1058 19.1552 19.2673 20.3151C18.7226 21.0711 18.3974 21.9966 18.3965 22.999C18.3937 25.5384 20.4606 27.6044 22.9991 27.6044Z" fill="#ECE8DF"/>
<path d="M33.054 17.3671V13.5075V12.9331L32.4769 12.935L28.6191 12.947L28.634 17.3819L33.054 17.3671Z" fill="#ECE8DF"/>
<path d="M23 0C10.3179 0 0 10.3179 0 23C0 35.6812 10.3179 46 23 46C35.6812 46 46 35.6812 46 23C46 10.3179 35.6831 0 23 0ZM36.0805 20.3161V31.0258C36.0805 33.8154 33.8126 36.0824 31.0249 36.0824L14.9751 36.0824C12.1865 36.0824 9.91948 33.8154 9.91948 31.0258V20.3161V14.976C9.91948 12.1874 12.1865 9.92041 14.9751 9.92041L31.024 9.92041C33.8126 9.92041 36.0805 12.1874 36.0805 14.976V20.3161Z" fill="#ECE8DF"/>
<path d="M30.155 22.9998C30.155 26.9437 26.9458 30.1548 23.0001 30.1548C19.0543 30.1548 15.846 26.9437 15.846 22.9998C15.846 22.0512 16.035 21.1442 16.3723 20.3159H12.4673V31.0257C12.4673 32.4098 13.5911 33.5308 14.9743 33.5308L31.0231 33.5308C32.4044 33.5308 33.5301 32.4098 33.5301 31.0257V20.3159H29.6233C29.9633 21.1442 30.155 22.0512 30.155 22.9998Z" fill="#ECE8DF"/>
</svg>
