<svg width="46" height="46" viewBox="0 0 46 46" fill="none" xmlns="http://www.w3.org/2000/svg">
<circle cx="23" cy="23" r="23" fill="#ECE8DF"/>
<path d="M23.2233 10.7334C16.5714 10.7334 11.1799 16.0859 11.1799 22.6832C11.1799 24.9403 11.8128 27.0544 12.9064 28.8572L10.7334 35.2667L17.4022 33.1471C19.1288 34.0919 21.1096 34.6359 23.2233 34.6359C29.8752 34.6359 35.2667 29.2834 35.2667 22.686C35.2667 16.0887 29.8752 10.7334 23.2233 10.7334ZM29.1235 26.8245C28.8805 27.5086 27.9113 28.0778 27.137 28.2404C26.6086 28.3525 25.9163 28.4423 23.5878 27.4862C20.6095 26.2637 18.6936 23.2608 18.5467 23.0674C18.4025 22.8711 17.3429 21.4776 17.3429 20.0364C17.3429 18.5953 18.0832 17.8915 18.3799 17.5915C18.6229 17.342 19.0299 17.2326 19.4142 17.2326C19.5413 17.2326 19.6515 17.2382 19.7533 17.2438C20.05 17.2551 20.1997 17.2747 20.3975 17.7401C20.6405 18.3233 21.2368 19.7645 21.3074 19.9131C21.3809 20.0617 21.4515 20.2607 21.3498 20.457C21.2537 20.6589 21.1718 20.7458 21.022 20.9196C20.8723 21.0907 20.731 21.2196 20.5812 21.4019C20.4427 21.5617 20.2902 21.7327 20.4625 22.0299C20.6349 22.3187 21.2311 23.2832 22.1071 24.0543C23.2374 25.0525 24.1558 25.3721 24.4836 25.5095C24.7266 25.6104 25.0205 25.5852 25.1985 25.3973C25.4246 25.1534 25.7043 24.7524 25.9897 24.3571C26.1932 24.0739 26.4475 24.0375 26.716 24.1384C26.9901 24.2309 28.4368 24.9431 28.7364 25.0889C29.0331 25.2375 29.2309 25.3076 29.3015 25.431C29.3694 25.5543 29.3694 26.1403 29.1235 26.8245Z" fill="#421603"/>
</svg>
