<svg width="24" height="24" viewBox="0 0 24 24" fill="none" xmlns="http://www.w3.org/2000/svg">
<path fill-rule="evenodd" clip-rule="evenodd" d="M1 0C0.447715 0 0 0.447715 0 1C0 1.28581 0.119901 1.54361 0.312146 1.72585L5.75859 14.3908C5.85396 15.1168 6.21153 15.7828 6.76394 16.2634C7.31539 16.7432 8.02297 17.0051 8.75377 17H19.3114C20.0116 17.011 20.6938 16.7766 21.2395 16.3373C21.7876 15.8961 22.1631 15.2763 22.3005 14.5863L22.3006 14.5862L22.3008 14.5848L23.9805 6.19634C24.0394 5.90254 23.9634 5.59784 23.7734 5.3661C23.5835 5.13436 23.2996 5 23 5H6.53686L6.22151 2.61L6.22146 2.60958C6.12683 1.8886 5.77354 1.22652 5.22732 0.746503C4.68098 0.26639 3.97883 0.00110239 3.25151 0H3.25H1ZM0.312169 1.72587L0 1L0.312146 1.72585C0.312154 1.72586 0.312161 1.72587 0.312169 1.72587ZM0.312169 1.72587L5.75848 14.39L4.23859 2.87081L4.23849 2.87C4.20697 2.62962 4.0892 2.40887 3.90709 2.24883C3.72513 2.08893 3.49132 2.00052 3.24911 2H1C0.733534 2 0.49141 1.89578 0.312169 1.72587ZM7.74141 14.1292L6.80075 7H21.7799L20.3395 14.1937L20.3392 14.1952C20.2934 14.4254 20.1682 14.6322 19.9854 14.7793C19.8026 14.9265 19.5738 15.0047 19.3392 15.0002L19.32 15H8.75V15L8.74152 15C8.49736 15.0021 8.26088 14.9148 8.07667 14.7545C7.89246 14.5943 7.77325 14.3721 7.74152 14.13L7.74141 14.1292ZM8 20C7.44772 20 7 20.4477 7 21C7 21.5523 7.44772 22 8 22C8.55228 22 9 21.5523 9 21C9 20.4477 8.55228 20 8 20ZM5 21C5 19.3431 6.34315 18 8 18C9.65685 18 11 19.3431 11 21C11 22.6569 9.65685 24 8 24C6.34315 24 5 22.6569 5 21ZM20 20C19.4477 20 19 20.4477 19 21C19 21.5523 19.4477 22 20 22C20.5523 22 21 21.5523 21 21C21 20.4477 20.5523 20 20 20ZM17 21C17 19.3431 18.3431 18 20 18C21.6569 18 23 19.3431 23 21C23 22.6569 21.6569 24 20 24C18.3431 24 17 22.6569 17 21Z" fill="#421603"/>
</svg>
