<svg width="20" height="18" viewBox="0 0 20 18" fill="none" xmlns="http://www.w3.org/2000/svg">
<path d="M9.9966 1.75098C10.7619 1.01883 11.6132 0.496973 12.6128 0.216575C16.5956 -0.897229 20.4925 2.46755 19.9536 6.55669C19.6647 8.74535 18.5636 10.5212 17.1657 12.1491C15.1743 14.4701 12.769 16.2927 10.2075 17.944C10.1059 18.0063 9.90289 18.0219 9.80917 17.9595C7.06806 16.1915 4.49094 14.2209 2.42144 11.6662C1.3203 10.3031 0.461265 8.80766 0.117649 7.05517C-0.639867 3.20749 2.35896 -0.227389 6.28711 0.0296428C7.71624 0.123109 8.93452 0.722849 9.9966 1.75098ZM10.0044 3.70597C9.73889 3.37884 9.51241 3.07508 9.2547 2.7791C8.08329 1.41606 6.07626 0.894204 4.35037 1.49394C2.56201 2.11705 1.3203 3.76828 1.25783 5.59087C1.20316 7.16422 1.77325 8.54284 2.62448 9.81242C4.49094 12.6164 7.09149 14.6415 9.84041 16.4952C9.91851 16.5498 10.0981 16.5498 10.1762 16.4952C12.6831 14.8129 15.0415 12.9669 16.8845 10.5446C17.7904 9.35288 18.4855 8.06772 18.7198 6.55669C19.0321 4.51601 17.9622 2.51428 16.0645 1.64193C14.2137 0.792949 12.0036 1.29143 10.6838 2.85699C10.4495 3.13739 10.2387 3.41 10.0044 3.70597Z" fill="white"/>
</svg>
